<svg width="4" height="18" viewBox="0 0 4 18" fill="none" xmlns="http://www.w3.org/2000/svg">
<path d="M2 10C1.45 10 1 9.55 1 9C1 8.45 1.45 8 2 8C2.55 8 3 8.45 3 9C3 9.55 2.55 10 2 10Z" stroke="#172B4D" stroke-width="2" stroke-linecap="round"/>
<path d="M2 3C1.45 3 1 2.55 1 2C1 1.45 1.45 1 2 1C2.55 1 3 1.45 3 2C3 2.55 2.55 3 2 3Z" stroke="#172B4D" stroke-width="2" stroke-linecap="round"/>
<path d="M2 17C1.45 17 1 16.55 1 16C1 15.45 1.45 15 2 15C2.55 15 3 15.45 3 16C3 16.55 2.55 17 2 17Z" stroke="#172B4D" stroke-width="2" stroke-linecap="round"/>
</svg>
