<svg width="20" height="22" viewBox="0 0 20 22" fill="none" xmlns="http://www.w3.org/2000/svg">
<path d="M14.5 8.39996L5.5 3.20996L14.5 8.39996Z" stroke="#41D7F2" stroke-width="2" stroke-linecap="round"/>
<path d="M19 15V7.00001C19 6.28001 18.62 5.62 18 5.27L11 1.27C10.38 0.91 9.62 0.91 9 1.27L2 5.27C1.38 5.62 1 6.28001 1 7.00001V15C1 15.71 1.38 16.37 2 16.73L9 20.73C9.62 21.09 10.38 21.09 11 20.73L18 16.73C18.62 16.37 19 15.71 19 15Z" stroke="#41D7F2" stroke-width="2" stroke-linecap="round"/>
<path d="M1.27002 5.95996L10 11.01L18.73 5.95996" stroke="#41D7F2" stroke-width="2" stroke-linecap="round"/>
<path d="M10 21.08V11V21.08Z" stroke="#41D7F2" stroke-width="2" stroke-linecap="round"/>
</svg>
