<svg width="24" height="24" viewBox="0 0 24 24" fill="none" xmlns="http://www.w3.org/2000/svg">
<path d="M12 15C10.34 15 9 13.66 9 12C9 10.34 10.34 9 12 9C13.66 9 15 10.34 15 12C15 13.66 13.66 15 12 15Z" stroke="#FC8266" stroke-width="2" stroke-linecap="round"/>
<path d="M19.4 15C19.13 15.62 19.26 16.34 19.73 16.82L19.79 16.88C20.17 17.26 20.38 17.76 20.38 18.29C20.38 18.83 20.17 19.33 19.79 19.71C19.41 20.09 18.91 20.3 18.38 20.3C17.84 20.3 17.34 20.09 16.96 19.71L16.9 19.65C16.42 19.18 15.7 19.05 15.08 19.32C14.48 19.58 14.08 20.17 14.08 20.83V21C14.08 22.1 13.18 23 12.08 23C10.98 23 10.08 22.1 10.08 21V20.91C10.06 20.23 9.64 19.63 9 19.4C8.38 19.13 7.65999 19.26 7.17999 19.73L7.12 19.79C6.74 20.17 6.24001 20.38 5.70001 20.38C5.17001 20.38 4.67001 20.17 4.29001 19.79C3.91001 19.41 3.70001 18.91 3.70001 18.38C3.70001 17.84 3.91001 17.34 4.29001 16.96L4.35001 16.9C4.82001 16.42 4.94999 15.7 4.67999 15.08C4.41999 14.48 3.83001 14.08 3.17001 14.08H3C1.9 14.08 1 13.18 1 12.08C1 10.98 1.9 10.08 3 10.08H3.09C3.77 10.06 4.37001 9.64 4.60001 9C4.87001 8.38 4.73999 7.65999 4.26999 7.17999L4.20999 7.12C3.82999 6.74 3.62 6.23999 3.62 5.70999C3.62 5.16999 3.82999 4.67001 4.20999 4.29001C4.58999 3.91001 5.09 3.70001 5.63 3.70001C6.16 3.70001 6.66001 3.91001 7.04001 4.29001L7.10001 4.35001C7.58001 4.82001 8.30001 4.94999 8.92001 4.67999H9C9.6 4.41999 10 3.83001 10 3.17001V3C10 1.9 10.9 1 12 1C13.1 1 14 1.9 14 3V3.09C14 3.75 14.4 4.34001 15 4.60001C15.62 4.87001 16.34 4.73999 16.82 4.26999L16.88 4.20999C17.26 3.82999 17.76 3.62 18.3 3.62C18.83 3.62 19.33 3.82999 19.71 4.20999C20.09 4.58999 20.3 5.09 20.3 5.62C20.3 6.16 20.09 6.66001 19.71 7.04001L19.65 7.10001C19.18 7.58001 19.05 8.30001 19.32 8.92001V9C19.58 9.6 20.17 10 20.83 10H21C22.1 10 23 10.9 23 12C23 13.1 22.1 14 21 14H20.91C20.25 14 19.66 14.4 19.4 15Z" stroke="#FC8266" stroke-width="2" stroke-linecap="round"/>
</svg>
